<svg xmlns="http://www.w3.org/2000/svg" width="76.166" height="68.959" viewBox="0 0 76.166 68.959"><g fill="#81B3D2"><path d="M71.914 46.042H4.25A4.265 4.265 0 0 0 0 50.294v3.454A4.265 4.265 0 0 0 4.252 58h.956v1.037c0 5.457 4.464 9.922 9.92 9.922h45.91c5.455 0 9.92-4.467 9.92-9.924V58h.956a4.265 4.265 0 0 0 4.252-4.252v-3.454a4.264 4.264 0 0 0-4.252-4.252zm-3.956 12.995c0 3.815-3.104 6.922-6.92 6.922h-45.91a6.93 6.93 0 0 1-6.92-6.924V58h59.75v1.037zm5.208-5.29A1.27 1.27 0 0 1 71.914 55H4.25C3.572 55 3 54.427 3 53.748v-3.454c0-.68.573-1.252 1.252-1.252h67.662c.68 0 1.252.573 1.252 1.252v3.454zm-57.004-15.89l5.473 4 5.477-4 5.48 4 5.477-4 5.477 4 5.478-4 5.48 4 5.48-4 5.488 4 6.368-4.645-1.767-2.424-4.6 3.356-5.49-4-5.48 4-5.478-4-5.478 4-5.48-4-5.477 4-5.478-4-5.476 4-5.473-4.002-5.477 4.002-4.593-3.355-1.77 2.42 6.363 4.645zM8.29 31.093h62.598c.04-.61.07-1.224.07-1.844 0-.388-.016-.772-.033-1.156C70.242 12.476 55.805 0 38.083 0 20.363 0 5.923 12.476 5.24 28.094c-.016.384-.032.77-.032 1.156 0 .62.03 1.233.072 1.844h3.01zM38.083 3c16.03 0 29.15 11.154 29.842 25.094H8.24C8.934 14.154 22.05 3 38.084 3z"/><circle cx="38.083" cy="15.042" r="2"/><circle cx="30.083" cy="10.083" r="2"/><circle cx="46.083" cy="10.083" r="2"/></g></svg>