<svg xmlns="http://www.w3.org/2000/svg" width="63" height="75.084" viewBox="0 0 63 75.084"><path fill="#81B3D2" d="M60.165 22.23H35.758c13.604-6.815 14.688-11.115 14.188-13.52-1.145-3.916-5.604-6.938-9.848-5.34-5.484 2.062-7.03 10.26-8.514 16.19-1.894-6-3.726-13.65-8.01-17.526C22.33.91 20.524-.203 17.896.03c-3.965.353-9.652 5.318-7.344 10.85 2.217 5.313 9.54 8.67 14.354 11.35H2.834A2.843 2.843 0 0 0 0 25.065V36.25a2.842 2.842 0 0 0 2.835 2.834h.27v36h56.958v-36h.104a2.842 2.842 0 0 0 2.835-2.833V25.066a2.846 2.846 0 0 0-2.837-2.835zm-18.4-16.357c2.07-.306 4.908 1.283 5.177 3.17.386 2.724-3.35 5.193-5.008 6.344-2.484 1.723-4.853 2.61-7.178 4.006.872-3.645 2.512-12.854 7.01-13.52zM19.233 15.72c-2.19-1.466-6.444-4.377-6.342-7.677.11-3.552 5.656-6.49 8.68-3.84 3.798 3.332 5.626 10.973 7.01 16.358-3.2-1.517-6.23-2.75-9.347-4.84zm5.882 56.427H6.042V39.084h19.072v33.063zm0-36.063H3V25.23h22.114v10.854zm10 0v36.062h-7.062V25.23h7.063v10.854zm22.01 36.063h-19.07V39.084h19.07v33.063zM60 36.084H38.053V25.23H60v10.854z"/></svg>