<svg xmlns="http://www.w3.org/2000/svg" width="255.917" height="28.91" viewBox="0 0 255.917 28.91"><path d="M64 14.454l-.203.23c-1.353 1.468-3.023 2.188-4.52 2.216l2.82-4.865c1.815-3.138.145-6.104-2.677-6.104-2.304 0-4.09.923-5.816 3.918l-1.468 2.562-1.227 2.097-.156.177c-2.16 2.505-4.26 4.49-5.586 4.49-.663 0-1.038-.46-.346-1.64l6.42-11.2h2.448l.864-1.44H52.08L54.902 0h-2.995l-2.822 4.895h-2.707l-.864 1.44h2.735l-6.02 10.423c-1.267 2.217-.374 4.262 2.044 4.262 1.74 0 3.662-1.31 5.51-3.084-.004 3.816 5.3 4.562 8.54.463h.662c1.785 0 4.607-1.096 6.133-2.91-.2-.404-.72-.864-1.12-1.037zm-6.393.202h-.144c-.98 0-1.756.806-1.756 1.786 0 .373.115.72.288 1.01l-.03.056c-1.41 2.42-4.836 1.958-3.05-1.15l2.273-3.945 1.44-2.447c2.102-3.57 4.98-2.16 3.167.95l-2.188 3.74zm47.848-.202l-.202.23c-2.16 2.505-4.924 4.49-7.025 4.49-1.843 0-2.937-1.15-1.555-3.568l.288-.52c1.93.807 5.56.432 7.805-3.455l.432-.747c1.612-2.764.058-4.837-2.39-4.837-2.42 0-4.348 1.267-5.615 3.455l-2.905 4.986-.173.198c-2.16 2.504-4.26 4.49-5.586 4.49-.662 0-1.037-.46-.346-1.64l4.32-7.57c1.295-2.276.058-3.917-1.613-3.917-1.296 0-2.68.72-4.176 2.274L91.492 0h-2.995l-8.354 14.492-.168.192c-2.16 2.505-4.26 4.49-5.586 4.49-.664 0-1.04-.46-.347-1.64l6.42-11.2h2.448l.865-1.44H81.3L84.123 0h-2.995l-2.822 4.895H75.6l-.864 1.44h2.735l-6.016 10.423c-1.267 2.217-.374 4.262 2.044 4.262 1.213 0 2.517-.64 3.822-1.627l-.772 1.338h3.023l4.55-7.915c4.608-5.788 6.65-5.04 5.356-2.822L85.59 16.76c-1.268 2.217-.375 4.262 2.043 4.262 1.782 0 3.757-1.375 5.647-3.217.143 1.864 1.652 3.217 4.053 3.217 3.397 0 6.766-2.65 9.243-5.53-.2-.405-.718-.865-1.12-1.038zm-5.7-4.204c1.727-2.965 4.78-2.476 2.994.634l-.434.75c-1.44 2.446-3.37 2.39-4.492 1.986l1.93-3.37zm114.87 4.204l-.2.23a18.778 18.778 0 0 1-3.602 3.253c.95-2.85.75-7.228 2.593-11.057l-2.246-1.21c-1.238 1.7-3.944 5.616-6.65 8.783l-.2.23c-2.16 2.505-4.262 4.49-5.587 4.49-.662 0-1.036-.46-.345-1.64l6.392-11.2h-2.994l-5.326 9.3c-2.274 2.07-4.03 3.224-4.606 2.964-.75-.315 0-1.438.374-2.072l5.845-10.192h-2.993l-4.695 8.124-.197.227c-1.354 1.468-3.023 2.188-4.52 2.216l2.82-4.865c1.813-3.138.146-6.104-2.678-6.104-2.304 0-4.09.923-5.815 3.918l-1.47 2.562-1.226 2.096-.156.178c-2.16 2.505-4.924 4.49-7.025 4.49-1.844 0-2.94-1.15-1.556-3.568l.288-.52c1.93.807 5.558.432 7.803-3.455l.433-.747c1.61-2.764.057-4.837-2.392-4.837-2.42 0-4.348 1.267-5.615 3.455l-2.903 4.985-.175.2c-2.477 2.85-4.606 4.69-6.97 5.7l6.71-11.46h-1.757c0-1.238-1.267-2.88-3.138-2.88-1.612 0-3.858 1.268-5.126 3.456l-2.87 4.958-.007-.004-.2.23c-2.16 2.504-4.263 4.49-5.587 4.49-.663 0-1.037-.46-.347-1.64l2.993-5.24c1.036-1.815.547-2.88-.433-4.06l-1.67-2.017c-.433-.547-.433-1.152.173-1.728l-1.555-1.7c-1.7 1.526-1.844 3.225-.777 4.607l.26.346c-1.323 1.872-3.11 4.405-5.067 6.71h.002l-.2.23c-1.355 1.466-3.023 2.187-4.522 2.216l2.82-4.867c1.814-3.138.145-6.104-2.678-6.104-2.303 0-4.088.92-5.814 3.915l-1.47 2.562-1.227 2.1-.152.175c-2.476 2.85-4.606 4.693-6.967 5.7l6.71-11.458h-1.757c0-1.238-1.266-2.88-3.138-2.88-1.612 0-3.858 1.268-5.125 3.456l-4.204 7.256c-1.268 2.217-.375 4.262 2.043 4.262.835 0 1.843-.375 2.85-1.008l-.834 1.41c-4.03 1.238-6.566 2.88-6.566 5.125 0 2.88 4.405 3.484 6.565-.2l2.274-3.946c2.396-.747 4.743-2.156 7.18-4.48-.022 3.83 5.293 4.583 8.54.477h.66c1.786 0 4.608-1.094 6.134-2.908 1.438-1.67 2.562-3.168 4.95-6.42l.403.49c.375.49.52 1.093.175 1.7l-3.17 5.5c-1.267 2.216-.374 4.26 2.046 4.26 1.52 0 3.177-1 4.8-2.43-.047 1.39.88 2.43 2.6 2.43.835 0 1.843-.375 2.85-1.01l-.834 1.41c-4.03 1.24-6.562 2.88-6.562 5.126 0 2.88 4.405 3.483 6.563-.2l2.275-3.945c2.44-.76 4.83-2.214 7.315-4.616.133 1.875 1.646 3.236 4.057 3.236 2.438 0 4.86-1.368 6.947-3.202-.116 3.92 5.268 4.72 8.54.58h.664c.938 0 2.158-.31 3.33-.856-.806 2.08-.063 3.478 1.65 3.478 1.64 0 3.482-1.498 4.922-2.88-.29 1.612.66 2.88 2.562 2.88 2.477 0 5.326-2.648 7.804-5.53 1.696-1.957 3.194-4.058 4.26-5.468-1.18 3.11-.548 8.695-3.397 8.695-1.01 0-1.41-1.094-1.41-1.094l-1.873.98s.547 2.42 3.282 2.42c.286 0 .547-.03.833-.06.03 0 .06-.03.088-.03 3.053-.4 6.075-2.82 8.32-5.44-.176-.464-.695-.924-1.125-1.04zM171.64 10.25c1.73-2.965 4.78-2.476 2.995.634l-.433.75c-1.44 2.446-3.37 2.39-4.492 1.986l1.93-3.37zm-57.175 15.605c-.634 1.123-1.64.95-1.64.145 0-.777.72-1.67 2.993-2.563l-1.353 2.418zm1.382-6.68c-.662 0-1.037-.46-.345-1.64l4.175-7.285c1.612-2.793 4.81-2.073 3.34.634l-2.274 3.973c-1.815 2.91-3.63 4.32-4.896 4.32zm18.397-4.52h-.145c-.98 0-1.758.807-1.758 1.787 0 .373.115.72.287 1.01l-.03.056c-1.41 2.42-4.836 1.958-3.05-1.15l2.272-3.945 1.44-2.447c2.103-3.57 4.98-2.16 3.167.95l-2.187 3.74zm18.827 11.2c-.632 1.123-1.64.95-1.64.145 0-.777.72-1.67 2.994-2.563l-1.352 2.418zm1.384-6.68c-.662 0-1.035-.46-.346-1.64l4.176-7.285c1.612-2.793 4.81-2.073 3.34.634l-2.274 3.973c-1.815 2.91-3.63 4.32-4.897 4.32zm29.54-4.52h-.146c-.98 0-1.756.807-1.756 1.787 0 .373.116.72.288 1.01l-.028.056c-1.41 2.42-4.837 1.958-3.052-1.15l2.273-3.945 1.44-2.447c2.103-3.57 4.98-2.16 3.168.95l-2.185 3.74zM0 11.275h28.917v1.958H0zm227 0h28.918v1.958H227z" fill="#766357"/></svg>