<svg xmlns="http://www.w3.org/2000/svg" width="293.826" height="79.393" viewBox="0 0 293.826 79.393"><g fill="#FFF"><path d="M33.42 17.06c7.657-2.59 8.24-12.18.692-12.18-2.08 0-4.56 1.458-6.272 4.448l-10.212 17.65c-.474.84-.948 1.532-1.458 2.15-2.626-3.61-1.86-9.006 1.823-11.377L16.46 15.82c-7.95 5.07-5.614 19.693 7.66 19.693 11.343.004 16.594-13.6 9.3-18.45zm-9.373 15.535c-2.26 0-4.048-.51-5.47-1.313.657-.767 1.313-1.715 1.896-2.7l6.382-11.05 1.02.11c8.9 1.86 5.362 14.953-3.828 14.953zM28.13 15.31l3.064-5.252c2.77-4.776 6.31-1.97 4.413 1.604-1.458 2.735-3.61 3.574-7.476 3.647z"/><path d="M65.5 29.32c-.63 2.25.572 4.077 3.145 4.077 1.532 0 3.428-.984 5.25-2.48.184 1.46 1.35 2.48 3.283 2.48 2.02 0 4.235-1.395 6.394-3.357-.42 2.048.54 3.357 2.41 3.357 2.08 0 4.413-1.896 6.236-3.646-.365 2.044.84 3.648 3.246 3.648 3.136 0 6.747-3.354 9.883-7.002-.025-.05-.07-.102-.1-.15 2.096-2.44 3.945-5.027 5.267-6.778-1.496 3.94-.693 11.014-4.304 11.014-1.276 0-1.787-1.385-1.787-1.385l-2.37 1.24s.692 3.063 4.156 3.063c.363 0 .69-.037 1.056-.072.037 0 .073-.036.11-.036 2.785-.368 5.55-2.064 7.942-4.225.057 2.495 1.994 4.333 5.144 4.333 4.303 0 8.57-3.354 11.707-7.002-.255-.51-.91-1.094-1.42-1.313l-.257.292c-2.735 3.172-6.236 5.688-8.898 5.688-2.334 0-3.72-1.46-1.97-4.52l.366-.658c2.444 1.02 7.04.547 9.884-4.376l.547-.95c2.043-3.5.074-6.125-3.026-6.125-3.063 0-5.507 1.605-7.11 4.376l-3.684 6.32c-.034-.013-.07-.038-.104-.047l-.255.292a23.674 23.674 0 0 1-4.556 4.12c1.203-3.61.948-9.152 3.282-14.003l-2.844-1.53c-1.567 2.15-4.995 7.11-8.423 11.122.03.046.073.09.11.138l-.136.154c-2.735 3.172-5.397 5.688-7.075 5.688-.84 0-1.313-.583-.44-2.08l8.096-14.186h-3.793l-6.747 11.78c-2.88 2.625-5.105 4.083-5.835 3.755-.947-.4 0-1.822.475-2.624l7.403-12.91h-3.793L85.93 25.244c-.1-.06-.197-.123-.29-.162l-.254.292c-2.735 3.172-5.397 5.688-7.075 5.688-.837 0-1.31-.583-.437-2.08L84 18.26h-2.153c.146-1.605-1.495-3.83-3.975-3.83-2.042 0-4.887 1.604-6.49 4.375l-3.847 6.637a2.85 2.85 0 0 0-.577-.364l-.255.292c-2.735 3.172-6.236 5.688-8.898 5.688-2.334 0-3.72-1.46-1.97-4.52l3.902-6.784c2.188-3.756 6.054-3.136 3.792.802l-.55.948h3.1l.548-.948c2.04-3.5.072-6.127-3.028-6.127-3.063 0-5.507 1.603-7.11 4.374l-3.77 6.467a2.407 2.407 0 0 0-.348-.193l-.255.292c-2.736 3.17-6.237 5.687-8.9 5.687-2.333 0-3.72-1.46-1.97-4.52l.366-.658c2.443 1.02 7.04.546 9.883-4.377l.546-.948c2.042-3.5.073-6.127-3.027-6.127-3.064 0-5.508 1.604-7.112 4.375l-3.975 6.82c-2.37 4.047-.328 7.767 4.157 7.767 3.34 0 6.657-2.023 9.442-4.635-.098 2.646 1.865 4.635 5.14 4.635 3.098.005 6.175-1.736 8.827-4.07zm58.028-9.562c2.188-3.756 6.054-3.136 3.792.802l-.547.948c-1.823 3.1-4.267 3.027-5.69 2.516l2.445-4.266zm-54.19 9.227l5.287-9.227c2.042-3.538 6.09-2.626 4.23.802L75.9 25.74c-2.296 3.61-4.558 5.323-6.125 5.323-.84 0-1.313-.583-.438-2.078zm-24.185-9.227c2.188-3.756 6.054-3.136 3.792.802l-.547.948c-1.823 3.1-4.267 3.027-5.69 2.516l2.445-4.266zm128.584 13.64c4.304 0 8.57-3.355 11.705-7.003-.254-.51-.91-1.094-1.422-1.313l-.254.292c-2.736 3.172-6.236 5.688-8.898 5.688-2.334 0-3.72-1.46-1.97-4.52l.364-.658c2.443 1.02 7.038.547 9.883-4.376l.547-.948c2.043-3.5.074-6.127-3.026-6.127-3.062 0-5.506 1.605-7.11 4.376l-3.693 6.334c-.037-.02-.077-.048-.113-.063l-.256.293c-2.734 3.172-5.396 5.688-7.074 5.688-.84 0-1.313-.582-.438-2.08l5.47-9.59c1.642-2.88.073-4.96-2.042-4.96-1.643 0-3.393.913-5.288 2.88l6.054-10.54h-3.793l-10.697 18.56a2.47 2.47 0 0 0-.434-.25l-.256.293c-2.735 3.172-5.397 5.688-7.075 5.688-.836 0-1.31-.582-.436-2.08l8.132-14.185h3.1l1.096-1.823h-3.136l3.574-6.2h-3.793l-3.574 6.2h-3.427l-1.094 1.823h3.462L140.2 28c-1.605 2.808-.475 5.396 2.588 5.396 1.885 0 3.94-1.216 5.962-2.975l-1.504 2.61h3.83l5.762-10.027c5.835-7.33 8.425-6.382 6.783-3.574L158.7 28c-1.604 2.808-.475 5.396 2.59 5.396 2.304 0 4.863-1.813 7.303-4.22.113 2.44 2.043 4.22 5.147 4.22zm3.063-13.64c2.188-3.756 6.055-3.136 3.793.802l-.547.948c-1.824 3.1-4.268 3.027-5.69 2.516l2.444-4.266zm111.956 5.325l-.256.292c-2.733 3.172-5.397 5.688-7.074 5.688-.84 0-1.313-.583-.438-2.08l12.838-22.208h-3.793l-5.58 9.628c-.656-1.058-1.896-1.97-3.464-1.97-2.046 0-4.89 1.605-6.494 4.376l-3.71 6.404c-.08-.047-.163-.1-.238-.133l-.257.293c-2.733 3.172-5.395 5.688-7.073 5.688-.84 0-1.314-.582-.44-2.08l5.47-9.59c1.643-2.88.074-4.96-2.04-4.96-1.644 0-3.356.876-5.253 2.846l1.423-2.48h-3.793l-6.062 10.488a2.52 2.52 0 0 0-.36-.203l-.256.293c-2.735 3.172-5.398 5.688-7.075 5.688-.84 0-1.312-.582-.437-2.08l6.127-10.72h-2.15c.145-1.604-1.496-3.83-3.977-3.83-2.043 0-4.888 1.605-6.492 4.376l-3.665 6.33-.207.234c-2.734 3.173-5.397 5.69-7.074 5.69-.84 0-1.314-.584-.44-2.08l3.794-6.637c1.313-2.298.692-3.646-.547-5.142l-2.114-2.552c-.547-.692-.547-1.458.22-2.188l-1.97-2.152c-2.152 1.934-2.334 4.084-.985 5.835l.33.438c-1.68 2.373-3.94 5.58-6.42 8.5.074.106.164.214.26.32-3.126 3.593-5.78 5.92-8.764 7.19l4.813-8.24h-3.793l-.4.656c-2.007 3.537-4.305 6.054-7.26 6.054-2.588 0-3.06-2.59-.8-6.456l1.057-1.86c.692.11 1.387.184 2.15.184 13.494 0 20.022-18.052 8.135-18.052-2.08 0-4.56 1.46-6.273 4.45L202.045 19.5c-2.226-1.167-3.392-3.282-3.392-5.397 0-1.75.803-3.5 2.442-4.776l-1.24-2.226c-2.698 1.936-3.9 4.524-3.9 7.077 0 3.027 1.714 5.944 4.776 7.55l-1.13 1.97c-2.66 4.594-2.187 9.7 3.175 9.7 1.604 0 2.953-.475 4.12-1.205l-.985 1.716c-5.142 1.567-8.314 3.646-8.314 6.49 0 3.647 5.58 4.413 8.313-.255l2.917-4.995c3.938-1.24 7.804-3.938 11.962-8.752a2.28 2.28 0 0 0-.237-.356c1.684-1.98 3.114-3.89 5.97-7.775l.51.62c.476.62.657 1.386.22 2.152L223.237 28c-1.604 2.808-.475 5.396 2.59 5.396 1.906 0 3.988-1.244 6.033-3.036-.045 1.745 1.148 3.036 3.31 3.036 1.532 0 3.43-.984 5.252-2.48.183 1.46 1.35 2.48 3.282 2.48 1.816 0 3.792-1.13 5.742-2.785l-1.398 2.423h3.83l5.797-10.103c5.8-7.258 8.39-6.31 6.747-3.502L259.5 28c-1.605 2.808-.476 5.396 2.588 5.396 2.017 0 4.226-1.388 6.38-3.346-.2 1.9 1.008 3.346 3.295 3.346 1.53 0 3.428-.984 5.252-2.48.183 1.46 1.35 2.48 3.28 2.48 3.138 0 6.748-3.354 9.884-7.002-.258-.51-.914-1.093-1.425-1.31zm-77.963-14.15c1.13-1.933 2.37-2.77 3.43-2.77 6.018 0 1.786 12.252-8.134 12.252h-.768l5.47-9.482zm-8.06 28.59c-.8 1.423-2.078 1.205-2.078.185 0-.985.875-2.115 3.794-3.246l-1.718 3.062zm39.694-13.783c-2.298 3.61-4.56 5.323-6.127 5.323-.84 0-1.313-.583-.438-2.08l5.287-9.226c2.04-3.538 6.09-2.626 4.23.802l-2.954 5.18zm36.7-.22c-2.297 3.756-4.63 5.543-6.235 5.543-.838 0-1.312-.583-.438-2.08l5.288-9.226c2.042-3.538 6.09-2.626 4.23.802h.035l-2.88 4.96zM162.05 61.082l-.254.293c-2.734 3.172-5.396 5.688-7.074 5.688-.84 0-1.313-.583-.438-2.08l5.47-9.59c1.643-2.88.073-4.96-2.042-4.96-1.642 0-3.354.875-5.25 2.845l1.42-2.48h-3.792l-6.112 10.575a2.652 2.652 0 0 0-.484-.29l-.255.292c-1.716 1.858-3.83 2.77-5.728 2.808l3.574-6.163c2.297-3.976.182-7.73-3.392-7.73-2.917 0-5.178 1.167-7.367 4.96l-1.86 3.245-1.626 2.78a2.407 2.407 0 0 0-.342-.19l-.256.292c-3.136 3.608-5.798 5.942-8.79 7.22L127.85 50.8h-3.792l-6.71 11.67c-2.917 2.698-5.178 4.193-5.908 3.865-.948-.4 0-1.823.474-2.625l7.403-12.91h-3.793l-6.05 10.47c-.114-.07-.227-.142-.332-.187l-.255.293c-2.735 3.172-5.397 5.688-7.075 5.688-.838 0-1.312-.583-.438-2.08l5.47-9.59c1.64-2.88.073-4.96-2.042-4.96-1.64 0-3.355.875-5.25 2.845l1.42-2.48H97.18l-6.062 10.485a2.52 2.52 0 0 0-.36-.203l-.255.293c-2.734 3.172-5.396 5.688-7.074 5.688-.84 0-1.313-.583-.44-2.08l6.128-10.72h-2.152c.146-1.604-1.495-3.83-3.975-3.83-2.04 0-4.886 1.605-6.49 4.377l-3.92 6.764c-.257-.235-.556-.417-.83-.49l-.254.293c-2.735 3.172-6.09 5.688-9.847 5.688-2.59 0-4.158-2.59-1.897-6.455l1.058-1.86c.694.11 1.387.185 2.15.185 4.05 0 8.645-2.08 11.636-7.295 1.057-1.86 1.53-3.61 1.53-5.104 0-3.43-2.224-5.652-5.03-5.652-2.08 0-4.56 1.46-6.274 4.45l-5.91 10.174c-2.224-1.167-3.39-3.282-3.39-5.397 0-1.75.8-3.5 2.442-4.774l-1.24-2.226c-2.7 1.934-3.902 4.52-3.902 7.074 0 3.026 1.714 5.944 4.777 7.55l-1.13 1.97c-2.663 4.595-1.095 9.7 4.266 9.7 4.24 0 7.353-1.89 9.968-4.373-.826 2.386.374 4.374 3.06 4.374 1.53 0 3.427-.984 5.25-2.48.183 1.46 1.35 2.48 3.282 2.48 1.816 0 3.792-1.13 5.742-2.783l-1.4 2.42h3.83l5.8-10.102c5.797-7.258 8.387-6.31 6.746-3.502L98.09 64c-1.604 2.81-.474 5.396 2.59 5.396 2.04 0 4.28-1.425 6.463-3.423-.455 2.086.51 3.423 2.398 3.423 1.826 0 3.904-1.53 5.618-3.063l-2.08 3.574c-5.14 1.53-8.35 3.646-8.35 6.49 0 3.647 5.58 4.413 8.314-.255l2.918-4.996c3.17-.998 6.297-2.965 9.563-6.195-.523 5.3 6.534 6.507 10.787 1.128h.84c1.384 0 3.26-.523 4.95-1.455l-2.548 4.41h3.83l5.797-10.103c5.8-7.26 8.39-6.31 6.746-3.503L151 64c-1.603 2.81-.474 5.396 2.59 5.396 3.138 0 6.747-3.354 9.884-7.002-.256-.51-.912-1.093-1.423-1.312zm-94.386-14.15c1.13-1.932 2.37-2.77 3.428-2.77 1.422 0 2.08.947 2.08 2.334 0 3.538-4.304 9.92-10.212 9.92h-.766l5.47-9.483zM81.02 61.74c-2.298 3.61-4.56 5.323-6.128 5.323-.838 0-1.312-.583-.438-2.08l5.288-9.226c2.042-3.537 6.09-2.625 4.23.803l-2.953 5.18zm28.85 13.783c-.803 1.423-2.08 1.204-2.08.185 0-.985.913-2.115 3.83-3.246l-1.75 3.06zm25.527-14.185h-.183c-1.24 0-2.225 1.02-2.225 2.262 0 .475.144.91.363 1.275l-.036.073c-1.787 3.063-6.127 2.48-3.866-1.46l2.88-4.995 1.825-3.1c2.663-4.522 6.31-2.735 4.012 1.203l-2.77 4.742zm114.56 1.058c-.22-.583-.874-1.167-1.42-1.313l-.257.293a23.64 23.64 0 0 1-4.56 4.12c1.204-3.61.948-9.153 3.282-14.004l-2.845-1.532c-1.567 2.15-4.996 7.112-8.425 11.123.007.01.016.018.02.025-.014-.007-.03-.02-.045-.025l-.255.293c-2.735 3.172-5.396 5.688-7.075 5.688-.84 0-1.642-.84-1.642-2.553v-1.566c2.662.328 5.47-1.423 7.258-4.52l1.02-1.75c3.537-6.055-2.225-8.062-6.09-4.522l5.395-9.372h-3.793L219.71 61.545a2.988 2.988 0 0 0-.694-.46l-.256.294c-2.734 3.17-6.236 5.686-8.898 5.686-2.334 0-3.72-1.46-1.97-4.52l3.902-6.784c2.188-3.756 6.054-3.136 3.793.803l-.547.948h3.1l.548-.948c2.04-3.5.072-6.127-3.027-6.127-3.06 0-5.506 1.604-7.11 4.376l-3.73 6.404c-.08-.047-.16-.1-.235-.133l-.256.293c-2.735 3.172-5.397 5.688-7.075 5.688-.84 0-1.313-.583-.438-2.08l8.096-14.185h-3.793l-6.747 11.78c-2.882 2.625-5.105 4.084-5.835 3.756-.948-.4 0-1.823.474-2.625l7.403-12.91h-3.793l-7.365 12.745c-.82.746-1.66 1.413-2.45 1.952 1.203-3.61.948-9.154 3.282-14.005l-2.847-1.532c-1.568 2.15-10.32 13.75-13.75 17.76.328.475.877.95 1.424 1.314 2.15-2.48 9.372-11.78 10.723-13.566-1.495 3.94-.692 11.015-4.304 11.015-1.275 0-1.787-1.387-1.787-1.387l-2.37 1.24s.69 3.063 4.155 3.063c.365 0 .693-.036 1.06-.07.034 0 .07-.038.107-.038 1.927-.255 3.84-1.143 5.63-2.38-.012 1.543.92 2.488 2.51 2.488 2.077 0 4.412-1.895 6.234-3.645-.363 2.043.84 3.646 3.246 3.646 2.355 0 4.98-1.89 7.467-4.38.033 2.52 1.974 4.38 5.144 4.38 3.078 0 6.137-1.72 8.776-4.03l-2.113 3.67h3.83l4.34-7.55v3.025c0 3.245.62 4.887 3.683 4.887 3.137 0 6.747-3.353 9.884-7-.006-.012-.017-.022-.02-.035.015.013.03.023.046.034 2.152-2.48 4.05-5.142 5.396-6.93-1.494 3.94-.69 11.015-4.303 11.015-1.275 0-1.787-1.387-1.787-1.387l-2.37 1.24s.692 3.063 4.157 3.063c.364 0 .69-.035 1.06-.07.034 0 .07-.037.107-.037 3.865-.515 7.694-3.578 10.538-6.896zm-25.186-2.99l1.096-1.896c4.377-6.09 7.367-4.413 6.018-2.115l-1.822 3.137c-1.133 1.967-4.452 3.353-5.29.874zm25.042 5.578c-1.24 0-2.188.984-2.188 2.226s.948 2.188 2.188 2.188c1.24 0 2.225-.947 2.225-2.188s-.986-2.226-2.225-2.226zm.182-1.494h3.83l11.887-20.715h-3.79z"/></g><path fill="#FFF" d="M5.75 6.9a2.444 2.444 0 0 1-.676 1.676 2.617 2.617 0 0 1-1.93.794c-.45 0-.884-.084-1.3-.253a2.937 2.937 0 0 1-1.066-.73A3.104 3.104 0 0 1 .203 7.34 4.017 4.017 0 0 1 0 6.055C0 5.2.152 4.41.457 3.687A6.004 6.004 0 0 1 1.76 1.76c.247-.25.528-.48.844-.695C2.92.852 3.22.67 3.5.525c.282-.147.525-.265.728-.356C4.43.08 4.555.02 4.6 0l1.353 1.996c-.25.09-.524.21-.83.354a4.686 4.686 0 0 0-.86.542 2.91 2.91 0 0 0-.678.76c-.18.294-.282.634-.304 1.017.656 0 1.23.19 1.727.573.496.382.744.935.744 1.656zm7.866 0a2.444 2.444 0 0 1-.676 1.675c-.226.236-.502.43-.83.574-.327.145-.693.22-1.1.22-.45 0-.884-.085-1.3-.254s-.773-.412-1.066-.728a3.136 3.136 0 0 1-.575-1.05 4.045 4.045 0 0 1-.205-1.285c0-.855.152-1.646.457-2.368A6.004 6.004 0 0 1 9.625 1.76c.248-.25.53-.48.846-.694a9.05 9.05 0 0 1 .898-.54c.282-.147.524-.266.728-.355.203-.09.327-.144.372-.167L13.82 2c-.25.09-.523.21-.83.353-.303.147-.59.327-.86.54s-.497.47-.677.762a2.16 2.16 0 0 0-.305 1.016c.654 0 1.23.19 1.725.576.496.38.744.934.744 1.655zm265.16 58.942c0-.294.057-.588.168-.88.113-.294.283-.56.508-.795a2.605 2.605 0 0 1 1.928-.795c.45 0 .887.085 1.303.253.418.17.772.412 1.065.73.25.292.44.643.575 1.047.135.406.203.834.203 1.286 0 .855-.152 1.646-.457 2.367s-.74 1.364-1.305 1.928a5.65 5.65 0 0 1-.847.693 8.277 8.277 0 0 1-.897.54c-.28.147-.522.267-.727.356a9.63 9.63 0 0 0-.372.17l-1.352-1.996c.247-.09.522-.21.827-.355a4.52 4.52 0 0 0 .863-.54c.27-.214.496-.47.676-.76a2.13 2.13 0 0 0 .306-1.015 2.74 2.74 0 0 1-1.726-.576c-.492-.384-.74-.937-.74-1.657zm-7.867 0c0-.294.055-.588.17-.88.11-.294.28-.56.505-.795.226-.237.503-.43.83-.575a2.66 2.66 0 0 1 1.1-.22c.45 0 .884.085 1.302.253.416.17.77.412 1.064.73.25.292.44.643.576 1.047.136.406.202.834.202 1.286a6.02 6.02 0 0 1-.457 2.367 5.994 5.994 0 0 1-1.3 1.928c-.248.248-.53.48-.846.693-.318.214-.615.395-.896.54s-.524.267-.73.356c-.203.09-.326.146-.37.17l-1.355-1.996c.25-.09.524-.21.83-.355.304-.144.592-.325.86-.54.27-.214.496-.47.678-.76.18-.294.28-.63.306-1.015a2.75 2.75 0 0 1-1.727-.576c-.493-.384-.74-.937-.74-1.657z"/></svg>