<svg xmlns="http://www.w3.org/2000/svg" width="187.664" height="44.918" viewBox="0 0 187.664 44.918"><path d="M27.712 0h7.708l-1.21 44.918H19.685L17.71 26.373l-1.975 18.545H1.145L0 0h7.645l.637 37.152h.828L13.888 0h7.58l4.906 37.152h.765L27.71 0zm31.85 37.152v7.766H38.668V0h20.896v7.7h-13.25v10.844h10.574v7.7H46.312v10.908h13.25zm21.34 0v7.766H62.62V0h7.644v37.152h10.638zm16.244-8.792l7.708-1.796v13.604c0 2.567-2.166 4.75-4.714 4.75H88.672c-2.612 0-4.714-2.183-4.714-4.75V4.748C83.958 2.12 86.06 0 88.672 0h11.467c2.546 0 4.712 2.117 4.712 4.75v9.11l-7.708 1.797V7.7H91.6v29.452h5.544v-8.79zM125.62 0c2.548 0 4.714 2.117 4.714 4.75v35.42c0 2.566-2.166 4.748-4.715 4.748h-11.47c-2.61 0-4.714-2.182-4.714-4.75V4.75c0-2.63 2.104-4.748 4.714-4.748h11.47zm-2.995 7.7h-5.543v29.452h5.543V7.7zM155.367 0h7.58v44.918h-7.645V22.844l-3.06 11.422h-7.452l-2.994-11.422v22.074h-7.646V0h7.58l6.817 21.688L155.367 0zm32.297 37.152v7.766h-20.896V0h20.896v7.7h-13.252v10.844h10.575v7.7h-10.575v10.908h13.252z" fill="#81B3D2"/></svg>