<?xml version="1.0" encoding="utf-8"?>
<!-- Generator: Adobe Illustrator 15.0.0, SVG Export Plug-In . SVG Version: 6.00 Build 0)  -->
<!DOCTYPE svg PUBLIC "-//W3C//DTD SVG 1.1//EN" "http://www.w3.org/Graphics/SVG/1.1/DTD/svg11.dtd">
<svg version="1.1" id="Layer_1" xmlns="http://www.w3.org/2000/svg" xmlns:xlink="http://www.w3.org/1999/xlink" x="0px" y="0px"
	 width="96px" height="115.5px" viewBox="0 0 96 115.5" enable-background="new 0 0 96 115.5" xml:space="preserve">
<g>
	<path fill="#00E3CB" d="M85.151,75.955C82.142,90.648,52.183,90.42,52.183,90.42L52.424,115H61V99.438
		c36-0.24,34.986-32.095,34.986-32.095L61,67.284V43.617c0,0-0.168-1.987-1.104-2.885c-0.754-0.718-3.158-0.918-3.158-0.918
		l-20.495-0.352L54.416,5.111c0,0,0.787-3.652-2.365-4.755c-2.513-0.88-4.675,1.18-4.675,1.18L26.478,41.006
		c0,0-1.43,3.108-0.549,4.574c0.808,1.341,3.612,1.42,3.612,1.42H53v26.244c0,0-0.455,1.762,0.161,2.194
		c0.865,0.605,2.026,0.537,2.026,0.537L85.151,75.955z"/>
	<path fill="#00E3CB" d="M27,81.832C27,83.029,26.03,84,24.833,84H2.167C0.97,84,0,83.029,0,81.832v-0.664
		C0,79.971,0.97,79,2.167,79h22.665C26.03,79,27,79.971,27,81.168V81.832z"/>
	<path fill="#00E3CB" d="M27.486,68.604c-0.556,1.059-1.866,1.467-2.926,0.911L4.083,58.772c-1.06-0.556-1.468-1.867-0.912-2.927
		l0,0c0.556-1.059,1.866-1.468,2.926-0.912l20.477,10.743C27.634,66.233,28.042,67.545,27.486,68.604L27.486,68.604z"/>
	<path fill="#00E3CB" d="M27.099,91.288c0.615,1.025,0.284,2.357-0.742,2.976L6.531,106.167c-1.024,0.616-2.357,0.282-2.973-0.743
		l0,0c-0.616-1.025-0.284-2.355,0.742-2.976l19.825-11.902C25.151,89.929,26.483,90.261,27.099,91.288L27.099,91.288z"/>
</g>
</svg>
