<?xml version="1.0" encoding="utf-8"?>
<!-- Generator: Adobe Illustrator 15.0.0, SVG Export Plug-In . SVG Version: 6.00 Build 0)  -->
<!DOCTYPE svg PUBLIC "-//W3C//DTD SVG 1.1//EN" "http://www.w3.org/Graphics/SVG/1.1/DTD/svg11.dtd">
<svg version="1.1" id="Layer_1" xmlns="http://www.w3.org/2000/svg" xmlns:xlink="http://www.w3.org/1999/xlink" x="0px" y="0px"
	 width="109px" height="109px" viewBox="0 0 109 109" enable-background="new 0 0 109 109" xml:space="preserve">
<path fill="none" d="z"/>
<g>
	<path fill="#FFFFFF" d="M0,1v108h109V1H0z M100,101H8V10h92V101z"/>
	<path fill="#FFFFFF" d="M36.055,61h3.835c9.59,0,16.572-8.003,16.572-15.754C56.462,38,52,31.716,44,30.966v-0.081L35.968,30H27
		v0.886v7.031v14.706v5.986v2.615V75h8.793L36.055,61z M39.716,39c4.189,0,7.585,2.311,7.585,6.5c0,4.188-3.396,6.5-7.585,6.5
		h-3.727l-0.021-13H39.716z"/>
	<path fill="#FFFFFF" d="M73.286,65.244c-1.472,5.753-13.571-0.588-13.571-0.588l0.005,7.52c7.192,3.498,11.525,3.119,16.823,1.419
		c5.295-1.701,9.258-9.832,4.289-15.619c-4.969-5.785-12.214-4.097-11.995-7.911C69.149,44.559,81,50.13,81,50.13v-7.344
		c-7-4.817-21.745-1.832-22.006,8.042C58.732,60.7,74.757,59.491,73.286,65.244z"/>
</g>
</svg>
