<?xml version="1.0" encoding="utf-8"?>
<!-- Generator: Adobe Illustrator 15.0.0, SVG Export Plug-In . SVG Version: 6.00 Build 0)  -->
<!DOCTYPE svg PUBLIC "-//W3C//DTD SVG 1.1//EN" "http://www.w3.org/Graphics/SVG/1.1/DTD/svg11.dtd">
<svg version="1.1" id="Layer_1" xmlns="http://www.w3.org/2000/svg" xmlns:xlink="http://www.w3.org/1999/xlink" x="0px" y="0px"
	 width="156px" height="156px" viewBox="0 0 156 156" enable-background="new 0 0 156 156" xml:space="preserve">
<g>
	<path fill-rule="evenodd" clip-rule="evenodd" fill="#FFFFFF" d="M67,28c-4,0-7.643,0-11.674,0c0.385-3-0.783-6,0.604-7
		C59.76,21,64,21,67,21c0-2,0-4,0-6c-6,0-13,0-16,0c0,6,0,11,0,18c3,0,10,0,16,0C67,31,67,29,67,28z"/>
	<path fill-rule="evenodd" clip-rule="evenodd" fill="#FFFFFF" d="M86.047,31.27c-0.577-2.101-0.623-5.478-0.547-9.675
		c-4.414-0.02-8.586-0.253-12.064-1.209c1.893-2.945,9.852,0.495,12.711-1.484C85.502,16.885,86.354,17,85.558,15
		C80.117,15,74,15,69,15c0,3,0,6.191,0,9.618c3,0.395,8.859-0.796,11.488,0.604C80.547,29.916,72,26.687,69,27.641
		c0,1.411,0,2.822,0,4.233C74,31.514,81.556,32.624,86.047,31.27z"/>
	<path fill-rule="evenodd" clip-rule="evenodd" fill="#FFFFFF" d="M104,21.595c-4-0.875-11.619,1.944-12.698-1.814
		C96.107,20.015,101,19.099,104,19.177c0-1.613,0-3.177,0-4.177c-5,0-11,0-16,0c0,3,0,6.191,0,9.618
		c4,0.85,11.181-1.909,12.094,1.814C98.224,28.997,92,27.019,88,27.641C88,29.052,88,31,88,33c5,0,11,0,16,0
		C104,29,104,25.022,104,21.595z"/>
	<path fill-rule="evenodd" clip-rule="evenodd" fill="#FFFFFF" d="M32.953,41c1.365,28,5.24,60.74,7.861,90.973
		c6.271,1.176,11.909,3.231,18.14,4.974c5.83,1.631,13.827,4.78,19.35,4.606c5.569-0.177,12.621-2.996,18.128-4.537
		c6.41-1.793,11.847-3.074,18.15-4.984C117.373,101.365,119.795,70,123.047,41C93.016,41,62.985,41,32.953,41z M106.721,69.363
		c-8.233,3.052-15.362,7.212-24.186,9.674c6.654,1.409,15.92,0.204,23.581,0.605c-1.044,11.855-2.618,23.179-3.022,35.674
		c-8.917,3.886-17.236,6.693-26.001,6.651c-8.167-0.037-13.46-1.681-24.186-6.438C52.602,111.879,51.432,106,50.488,97
		c3.829,0,7.659,0,11.488,0c0.439,4,0.318,6.926,1.21,9.463c9.803,3.363,19.216,3.063,27.813-1.081
		C91.788,101.805,91.565,96,92.211,91c-14.11,0-28.219,0-42.328,0c-0.283-4-0.615-7.785-1.209-11.424
		c9.026-3.469,17.188-7.771,26.606-10.851c-8.065-1.409-18.744-0.186-27.815-0.588c-0.36-3.407-1.226-9.055-0.604-11.481
		c20.773-0.415,39.933,0.006,60.705-0.41C108.36,59.032,106.289,64.972,106.721,69.363z"/>
</g>
</svg>
