<?xml version="1.0" encoding="utf-8"?>
<!-- Generator: Adobe Illustrator 15.0.0, SVG Export Plug-In . SVG Version: 6.00 Build 0)  -->
<!DOCTYPE svg PUBLIC "-//W3C//DTD SVG 1.1//EN" "http://www.w3.org/Graphics/SVG/1.1/DTD/svg11.dtd">
<svg version="1.1" id="Layer_1" xmlns="http://www.w3.org/2000/svg" xmlns:xlink="http://www.w3.org/1999/xlink" x="0px" y="0px"
	 width="156px" height="156px" viewBox="0 0 156 156" enable-background="new 0 0 156 156" xml:space="preserve">
<g>
	<path fill-rule="evenodd" clip-rule="evenodd" fill="#FFFFFF" d="M39,78.393c0-10.805,0-23.874,0-33.054
		c-11,0.207-19.869-1.225-22.939,5.509C12.634,58.362,19,74.952,9,74.505c0,2.161,0,4.321,0,6.481
		c11-0.118,2.711,17.915,7.569,24.953c2.692,3.897,6.431,3.437,12.431,4.213c0-2.159,0-4.321,0-6.48
		c-11,1.854-4.263-14.287-7.528-22.038c-0.864-2.051-1.99-2.313-3.44-3.888c9.91-2.729-2.654-29.723,13.025-25.602
		c0.796,10.102-1.014,26.823,0.03,36.943c0.74,7.166,5.256,9.114,12.331,9.398c0.187-2.299,0.684-4.184,0.87-6.481
		C37.976,91.569,39,85.536,39,78.393z"/>
	<path fill-rule="evenodd" clip-rule="evenodd" fill="#FFFFFF" d="M138.579,50.848C136.432,46.14,132,45.862,125,45.339
		c0,2.161,0,4.321,0,6.481c12-1.588,4.935,14.409,8.15,22.037c0.921,2.184,2.275,2.288,3.378,4.213
		C126.527,80.384,139,105.091,125,103.672c0,2.159,0,4.321,0,6.48c7-0.533,10.44-0.489,13.012-4.213
		c4.195-6.078-1.491-19.6,4.642-24.306c0.879-0.418,1.347-0.793,3.347-0.647c0-2.16,0-4.321,0-6.481
		C135,74.64,142.284,58.974,138.579,50.848z"/>
	<path fill-rule="evenodd" clip-rule="evenodd" fill="#FFFFFF" d="M85.886,71.589c0.601-5.087,10.463-3.001,13.936-1.622
		c0.313-2.279,1.085-4.1,1.296-6.48c-9.2-3.06-21.349-1.885-23.008,6.157c-0.809,3.915,0.254,6.937,1.62,8.75
		c3.361,4.459,15.585,4.654,15.231,10.371c-0.355,5.729-12.396,2.813-16.203,1.296c-0.625,2.077-1.201,4.2-1.297,6.807
		c8.776,2.751,22.521,2.744,24.953-4.537c1.338-4.008,0.135-8.555-1.297-10.371C98.039,78.054,85.265,76.864,85.886,71.589z"/>
	<path fill-rule="evenodd" clip-rule="evenodd" fill="#FFFFFF" d="M128.986,91.033c0.916-4.434-0.635-8.011-2.267-9.725
		c-3.494-3.665-14.818-4.13-14.584-9.396c0.246-5.516,10.463-3.311,13.935-1.945c0.213-2.379,0.984-4.2,1.297-6.48
		c-8.614-2.802-20.361-2.094-22.684,4.86c-1.226,3.667-0.362,7.792,0.971,9.723c2.832,4.102,16.292,5.639,15.555,11.018
		c-0.741,5.419-12.651,2.339-16.525,0.972c-0.295,2.3-0.728,4.459-1.297,6.482C112.33,100.063,127.226,99.566,128.986,91.033z"/>
	<path fill-rule="evenodd" clip-rule="evenodd" fill="#FFFFFF" d="M49.59,65.775c-6.963,6.566-7.08,21.863-0.324,28.346
		c4.773,4.58,16.624,5.754,24.306,2.345c-0.259-2.225-0.673-4.563-0.973-6.747C65.121,92.689,52.159,92,52.832,82
		c7.669,0,15.338,0,23.009,0C79.436,63,59.991,55.971,49.59,65.775z M68.063,76.449c-4.43,0.755-10.262,0.108-15.231,0.324
		C52.062,66.624,68.664,66.07,68.063,76.449z"/>
</g>
</svg>
