<?xml version="1.0" encoding="utf-8"?>
<!-- Generator: Adobe Illustrator 15.0.0, SVG Export Plug-In . SVG Version: 6.00 Build 0)  -->
<!DOCTYPE svg PUBLIC "-//W3C//DTD SVG 1.1//EN" "http://www.w3.org/Graphics/SVG/1.1/DTD/svg11.dtd">
<svg version="1.1" id="Layer_1" xmlns="http://www.w3.org/2000/svg" xmlns:xlink="http://www.w3.org/1999/xlink" x="0px" y="0px"
	 width="133px" height="133px" viewBox="0 0 133 133" enable-background="new 0 0 133 133" xml:space="preserve">
<path fill="none" d="z"/>
<path fill="#FFFFFF" d="M128.627,59.601L73.402,4.377c-3.813-3.813-9.992-3.813-13.805,0L47.729,16.246l14.713,14.319
	c1.21-0.52,2.543-0.809,3.945-0.809c5.528,0,10.01,4.482,10.01,10.012c0,1.304-0.256,2.545-0.709,3.688l14.863,14.464
	c1.167-0.477,2.442-0.745,3.781-0.745c5.528,0,10.011,4.491,10.011,10.021c0,5.529-4.482,10.02-10.011,10.02
	c-5.53,0-10.012-4.465-10.012-9.995c0-1.494,0.335-2.873,0.922-4.146L70.657,48.541C69.985,48.858,69.275,49,68.532,49H70v36.582
	c4,1.612,6.016,5.041,6.016,9.023c0,5.53-4.274,10.014-9.802,10.014c-5.531,0-10.051-4.483-10.051-10.014
	c0-4.457,3.837-8.23,6.837-9.527V49h1.241c-4.498,0-7.867-4.712-7.867-9.505c0-1.434,0.307-2.724,0.85-3.957L42.533,21.342
	L4.374,59.55c-3.813,3.813-3.813,10.02,0,13.832l55.224,55.237c3.813,3.813,9.993,3.819,13.805,0.007l55.225-55.222
	C132.438,69.591,132.438,63.414,128.627,59.601z"/>
</svg>
