<?xml version="1.0" encoding="utf-8"?>
<!-- Generator: Adobe Illustrator 15.0.0, SVG Export Plug-In . SVG Version: 6.00 Build 0)  -->
<!DOCTYPE svg PUBLIC "-//W3C//DTD SVG 1.1//EN" "http://www.w3.org/Graphics/SVG/1.1/DTD/svg11.dtd">
<svg version="1.1" id="Layer_1" xmlns="http://www.w3.org/2000/svg" xmlns:xlink="http://www.w3.org/1999/xlink" x="0px" y="0px"
	 width="156px" height="156px" viewBox="0 0 156 156" enable-background="new 0 0 156 156" xml:space="preserve">
<g>
	<path fill-rule="evenodd" clip-rule="evenodd" fill="#FFFFFF" d="M46.95,25c1.611,0,3.05,0,5.05,0c0,2,0,4,0,7c2,0,4,0,6,0
		c0-7,0-13,0-18c-2,0-4.205,0-6.218,0c-0.374,1,0.767,4-0.604,5C49.567,19,48,19,46,19c0-1,0-4,0-5c-2,0-3,0-5,0c0,5,0,11,0,18
		c2,0,3.535,0,5.347,0C46.725,29,45.573,26,46.95,25z"/>
	<path fill-rule="evenodd" clip-rule="evenodd" fill="#FFFFFF" d="M65,20.258C65,23.881,65,28,65,32c2,0,4,0,6,0
		c0-5,0-8.521,0-12.346c2-0.915,2,0.202,5-0.604c0-1.812,0-4.05,0-5.05c-6,0-10,0-16,0c0,1,0,3.238,0,5.05
		C63,20.116,64,18.374,65,20.258z"/>
	<path fill-rule="evenodd" clip-rule="evenodd" fill="#FFFFFF" d="M84.998,23.712c0.943,1.875,1.554,3.744,3.502,4.615
		c1.516-1.303,1.5-3.95,3.5-5.05C92,25.895,92,28,92,32c2,0,4,0,6,0c0-7,0-13,0-18c-2,0-4.145,0-6.359,0
		c-0.494,2-2.126,3.913-3.623,5.436C87.459,17.175,85.555,15,84.998,14C82.984,14,81,14,79,14c0,5,0,11,0,18c2,0,3.582,0,5.395,0
		C84.781,28,83.609,25.142,84.998,23.712z"/>
	<path fill-rule="evenodd" clip-rule="evenodd" fill="#FFFFFF" d="M115.324,25.525c-2.629-0.39-6.324,0.352-8.324-1.04
		c0-3.624,0-7.485,0-10.485c-2,0-5,0-6,0c0,5,0,11,0,18c5,0,8.96,0,13.59,0C115.662,30,115.162,27.575,115.324,25.525z"/>
	<path fill-rule="evenodd" clip-rule="evenodd" fill="#FFFFFF" d="M33.06,39c1.239,30,5.039,62.188,7.851,92.391
		c6.115,1.439,11.984,3.7,18.118,5.43c5.868,1.654,13.207,4.85,18.722,4.829c5.725-0.021,13.333-3.154,19.326-4.834
		c6.123-1.716,12.233-4.063,18.118-6.028C117.352,99.729,120.792,70,123.045,39C93.051,39,63.055,39,33.06,39z M105.531,70
		c-14.494,0-28.988,0-43.482,0c-0.418,4,1.022,5.712,0.604,9.553c12.692,1.398,27.974,0.153,41.67,0.548
		c-0.992,12.093-1.503,24.64-3.02,36.208c-8.516,0.188-15.638,6.036-23.553,6.026c-8.067-0.01-15.362-5.63-23.553-6.628
		C53.206,109.854,52.634,103,52.386,97c4.026,0,8.052,0,12.079,0c1.236,2,0.326,6.094,0.604,9.037
		c8.454,3.941,16.187,3.458,25.365,0.593c-0.209-4.838,1.072-8.194,0.604-13.292c-12.422-1.973-26.216,0.531-39.255-1.259
		C51.49,80.274,48.562,68,49.366,57c18.923,0,37.847,0,56.769,0C106.319,62,106.039,66,105.531,70z"/>
</g>
</svg>
