<?xml version="1.0" encoding="utf-8"?>
<!-- Generator: Adobe Illustrator 15.0.0, SVG Export Plug-In . SVG Version: 6.00 Build 0)  -->
<!DOCTYPE svg PUBLIC "-//W3C//DTD SVG 1.1//EN" "http://www.w3.org/Graphics/SVG/1.1/DTD/svg11.dtd">
<svg version="1.1" id="Layer_1" xmlns="http://www.w3.org/2000/svg" xmlns:xlink="http://www.w3.org/1999/xlink" x="0px" y="0px"
	 width="115px" height="98px" viewBox="0 0 115 98" enable-background="new 0 0 115 98" xml:space="preserve">
<path fill="#F10088" d="M45.609,70.113c-1.384,1.32-3.578,1.272-4.899-0.112s-1.271-3.577,0.114-4.898l67.979-64.916
	C107.824,0.454,106.694,1,106.694,1L2.172,46.648c0,0-1.815,1.368-1.859,2.377c-0.048,1.082,2.379,2.287,2.379,2.287l33.283,18.981
	l0.519,21.656c0,0,0.121,3.682,1.645,4.149c1.41,0.434,3.673-1.154,3.673-1.154l17.896-12.981l23.732,13.617
	c0,0,4.395,2.524,5.445,2.074c1.815-0.777,2.423-3.646,2.423-3.646l22.865-88.426c0,0,0.194-0.621,0.299-1.228L45.609,70.113z"/>
</svg>
