<?xml version="1.0" encoding="utf-8"?>
<!-- Generator: Adobe Illustrator 15.0.0, SVG Export Plug-In . SVG Version: 6.00 Build 0)  -->
<!DOCTYPE svg PUBLIC "-//W3C//DTD SVG 1.1//EN" "http://www.w3.org/Graphics/SVG/1.1/DTD/svg11.dtd">
<svg version="1.1" id="Layer_1" xmlns="http://www.w3.org/2000/svg" xmlns:xlink="http://www.w3.org/1999/xlink" x="0px" y="0px"
	 width="133px" height="63px" viewBox="0 0 133 63" enable-background="new 0 0 133 63" xml:space="preserve">
<path fill="none" d="z"/>
<g>
	<path fill="#FFFFFF" d="M2.05,50.958c2.861,1.399,7.844,2.424,11.763,2.424c6.466,0,9.753-2.986,9.753-7.092
		c0-4.572-3.182-6.81-9.224-10.26c-9.75-5.227-13.46-11.85-13.46-17.541c0-10.077,7.633-18.473,22.472-18.473
		c4.77,0,9.22,1.119,11.232,2.238l-2.225,10.542c-2.012-1.119-5.087-2.145-9.007-2.145c-5.938,0-8.797,3.171-8.797,6.53
		c0,3.735,2.119,5.692,9.751,9.798c9.538,5.038,12.93,11.382,12.93,18.007c0,11.474-9.646,19.029-23.532,19.029
		c-5.72,0-11.232-1.303-13.672-2.518L2.05,50.958z"/>
	<path fill="#FFFFFF" d="M55.371,63.459L39.472,0.576H54.84l5.087,27.148c1.166,6.813,2.65,14.465,3.605,21.833h0.213
		c0.953-7.464,2.119-15.02,3.388-22.112l4.878-26.869h15.262L70.953,63.459H55.371z"/>
	<path fill="#FFFFFF" d="M132.966,61.779c-3.077,1.122-9.54,2.237-14.732,2.237c-8.27,0-14.523-2.052-19.184-6.251
		c-6.148-5.221-9.435-14.554-9.223-25.375c0.315-22.858,15.052-32.374,30.418-32.374c5.407,0,9.327,0.932,11.556,1.866
		l-2.334,10.542c-2.117-0.934-4.768-1.399-8.16-1.399c-9.537,0-17.064,5.691-17.064,22.018c0,15.113,6.674,20.617,13.247,20.617
		c1.274,0,2.228-0.092,2.756-0.279V38.174h-6.464v-9.982h19.185V61.779z"/>
</g>
</svg>
