<?xml version="1.0" encoding="utf-8"?>
<!-- Generator: Adobe Illustrator 15.0.0, SVG Export Plug-In . SVG Version: 6.00 Build 0)  -->
<!DOCTYPE svg PUBLIC "-//W3C//DTD SVG 1.1//EN" "http://www.w3.org/Graphics/SVG/1.1/DTD/svg11.dtd">
<svg version="1.1" id="Layer_1" xmlns="http://www.w3.org/2000/svg" xmlns:xlink="http://www.w3.org/1999/xlink" x="0px" y="0px"
	 width="109px" height="70px" viewBox="0 0 109 70" enable-background="new 0 0 109 70" xml:space="preserve">
<path fill="none" d="z"/>
<g>
	<path fill="#FFFFFF" d="M30.208,2.126H43.43v41.591c0,5.438-0.479,9.62-1.435,12.549c-1.285,3.824-3.615,6.895-6.991,9.209
		c-3.376,2.316-7.829,3.475-13.355,3.475c-6.484,0-11.473-1.815-14.969-5.445c-3.496-3.63-5.259-8.956-5.289-15.978l12.504-1.435
		c0.149,3.765,0.701,6.425,1.658,7.978c1.434,2.361,3.615,3.541,6.543,3.541c2.958,0,5.049-0.844,6.274-2.532
		s1.837-5.191,1.837-10.51V2.126z"/>
	<path fill="#FFFFFF" d="M54.186,46.451l12.908-1.256c0.775,4.333,2.352,7.516,4.729,9.546c2.375,2.033,5.58,3.048,9.613,3.048
		c4.271,0,7.492-0.903,9.658-2.711s3.25-3.922,3.25-6.342c0-1.554-0.457-2.875-1.369-3.966c-0.91-1.092-2.502-2.04-4.771-2.847
		c-1.555-0.538-5.094-1.494-10.623-2.868c-7.111-1.763-12.1-3.929-14.967-6.499c-4.035-3.614-6.051-8.021-6.051-13.221
		c0-3.346,0.947-6.477,2.844-9.39c1.898-2.913,4.633-5.131,8.203-6.655c3.57-1.523,7.879-2.285,12.93-2.285
		c8.246,0,14.453,1.808,18.621,5.423s6.357,8.44,6.566,14.477l-13.266,0.582c-0.568-3.376-1.787-5.804-3.652-7.283
		c-1.867-1.479-4.67-2.218-8.404-2.218c-3.854,0-6.873,0.792-9.053,2.375c-1.404,1.016-2.105,2.375-2.105,4.078
		c0,1.554,0.656,2.884,1.971,3.989c1.672,1.404,5.736,2.868,12.191,4.392c6.453,1.523,11.227,3.1,14.318,4.729
		s5.514,3.854,7.26,6.677c1.748,2.824,2.623,6.313,2.623,10.466c0,3.765-1.047,7.29-3.137,10.576
		c-2.092,3.288-5.051,5.73-8.875,7.328c-3.826,1.599-8.59,2.398-14.297,2.398c-8.307,0-14.686-1.92-19.137-5.76
		C57.711,59.396,55.053,53.801,54.186,46.451z"/>
</g>
</svg>
