<?xml version="1.0" encoding="utf-8"?>
<!-- Generator: Adobe Illustrator 15.0.0, SVG Export Plug-In . SVG Version: 6.00 Build 0)  -->
<!DOCTYPE svg PUBLIC "-//W3C//DTD SVG 1.1//EN" "http://www.w3.org/Graphics/SVG/1.1/DTD/svg11.dtd">
<svg version="1.1" id="Layer_1" xmlns="http://www.w3.org/2000/svg" xmlns:xlink="http://www.w3.org/1999/xlink" x="0px" y="0px"
	 width="109px" height="147px" viewBox="0 0 109 147" enable-background="new 0 0 109 147" xml:space="preserve">
<path fill="none" d="z"/>
<g>
	<path fill-rule="evenodd" clip-rule="evenodd" fill="#FFFFFF" d="M35.95,55.672c-4.469-3.781-11.583-6.931-19.013-5.07
		c1.099,0.378,2.46,0.496,3.169,1.267c-2.519,1.016-2.379,6.481-0.317,7.922c0.079-1.612,0.204-3.176,1.267-3.802
		C19.979,65.279,31.19,72.372,39.752,67.08c1.564,2.123,0.528,6.476,0.634,8.556c1.229-2.679,3.23-4.587,3.169-8.556
		c3.358-0.233,5.522-1.661,5.704-5.07C42.438,64.78,39.146,58.376,35.95,55.672z M26.125,54.404
		c4.565,3.041,9.578,5.634,12.359,10.458C31.293,69.107,22.69,62.742,26.125,54.404z"/>
	<path fill-rule="evenodd" clip-rule="evenodd" fill="#FFFFFF" d="M34.365,120.633c-0.44,2.253,3.584,6.408,5.388,6.973
		c5.035,1.575,8.241-3.989,8.556-7.923C45.532,118.474,35.014,117.306,34.365,120.633z"/>
	<path fill-rule="evenodd" clip-rule="evenodd" fill="#FFFFFF" d="M60.667,119.999c1.224,3.418,2.489,6.784,5.703,7.606
		c4.6,1.175,8.934-4.564,7.922-8.239C71.093,118.586,62.884,117.742,60.667,119.999z"/>
	<path fill-rule="evenodd" clip-rule="evenodd" fill="#FFFFFF" d="M61.302,49.967c-3.073,2.649-10.465,2.321-13.627,0
		C49.775,55.754,60.039,54.984,61.302,49.967z"/>
	<path fill-rule="evenodd" clip-rule="evenodd" fill="#FFFFFF" d="M70.807,57.89c-2.591,2.611-6.273,6.665-11.092,4.12
		c1.183,4.025,2.314,4.279,6.338,5.387c-0.583,3.081,1.224,6.021,3.169,8.239c-0.692-2.438-1.259-7.005,0.635-8.556
		c8.492,5.182,18.811-1.615,18.695-11.091c0.679,1.137,1.009,4.084,1.269,3.802c1.571-3.288,1.437-5.974-0.635-8.239
		c1.101-0.378,2.462-0.496,3.169-1.267C82.52,48.985,75.586,53.073,70.807,57.89z M70.807,64.861
		c2.631-4.87,7.769-7.23,12.042-10.458C86.766,62.03,78.062,69.391,70.807,64.861z"/>
	<path fill-rule="evenodd" clip-rule="evenodd" fill="#FFFFFF" d="M100.945,55.038c-0.91-1.877-0.978-6.867-0.495-9.189
		c0.576-2.746,2.956-4.359,3.558-6.655c1.811-6.892-1.595-10.423-9.154-11.091c-2.832-8.534,4.434-11.627,11.109-12.675
		c-3.375-5.279-9.241-8.204-17.736-7.289c-4.485,0.484-9.498,3.515-12.038,5.704c-1.628,1.403-4.395,6.222-6.335,6.021
		c-4.719-0.49,0.231-10.477,0.635-11.408c-4.623-0.082-6.416,2.449-9.505,3.902C60.054,9.685,59.501,5,60.667,2
		c-0.106,0-0.212,0-0.318,0c-4.955,2-9.484,5.097-10.456,11.309c-1.835-1.229-1.913-4.105-1.901-7.18
		c-5.583,1.811-7.062,7.781-8.557,13.68c-2.512-0.513-3.598-3.338-5.386-5.043c-3.17-3.021-7.839-6.065-12.993-6.641
		C11.89,7.1,6.652,10.526,2.993,15.421c6.881,1.015,14.089,4.096,11.408,12.678C3.483,26.731,3.191,40.594,8.833,45.53
		C10.98,56.673,4,56.667,2,62.96c0,1.057,0,2.113,0,3.169c1,3.883,3.617,5.986,6.518,7.921c2.639,1.764,6.564,2.884,8.487,5.388
		c4.325,5.627,0.37,13.777,0.916,22.815c-3.393-1.481-6.043-6.428-6.988-11.407c-11.559,8.768-5.785,32.483,7.281,34.541
		c3.636,7.138,8.79,12.896,18.691,13.767C40.549,142.798,46.45,145,53.061,145c0.951,0,1.902,0,2.853,0
		c6.847,0,12.636-2.295,16.479-5.846c9.831-0.942,14.958-6.657,18.696-13.696c13.521-2.055,17.99-25.722,7.604-34.576
		c-1.637,4.701-3.459,9.2-7.287,11.706c0.353-9.15-3.603-18.178,1.267-23.705C96.836,74.152,107.174,74,107.249,65
		c0.105,0-0.249,0-0.249,0c0-1,0-0.772,0-1.406C107,58.419,102.588,58.428,100.945,55.038z M97.742,13.209
		c-0.958,2.225-3.003,1.462-5.704,1.585c-6.011,0.272-10.151,4.056-12.676,8.555c-1.606,0.022-2.049-1.121-3.485-1.268
		C79.65,14.333,89.016,9.683,97.742,13.209z M92.038,17.962c-2.179,2.259-1.251,7.622-2.853,10.458
		c-3.036,1.766-4.723-0.774-6.337-2.218C84.304,21.848,86.521,18.254,92.038,17.962z M11.232,13.526
		c8.955-4.301,18.648,1.295,22.182,8.556c-1.175,0.198-1.855,0.891-2.851,1.268c-3.65-4.071-6.878-8.206-13.311-8.555
		C14.85,14.662,12.867,15.331,11.232,13.526z M23.274,29.37c-0.869-0.503-2.299-0.447-3.168-0.95
		c-1.671-2.767-0.767-8.106-2.853-10.458C23.494,17.97,29.008,25.801,23.274,29.37z M9.647,98.452
		c3.175,7.811,9.987,11.984,20.598,12.358c-2.028,3.16-5.085,7.547-3.486,12.358C13.439,122.919,5.573,112.072,9.647,98.452z
		 M23.59,126.653c1.506,0.206,2.564,0.762,5.07,0.636c1.188,2.086,1.966,4.583,3.487,6.336
		C28.792,133.071,25.353,129.856,23.59,126.653z M48.308,140.281c-4.918-1.018-9.117-4.088-12.358-8.238
		c-3.565-4.566-10.826-16.318,0.316-17.747c6.705-0.859,25.038-0.199,35.175,0c2.762,0.054,6.245,0.402,7.286,2.852
		c2.005,4.712-3.553,13.307-6.021,16.162C68.101,138.64,58.591,142.408,48.308,140.281z M77.461,133.941
		c0.152-1.858,2.341-4.416,3.169-6.652c1.723,0.033,3.289-0.093,4.436-0.636C84.771,130.057,80.332,132.06,77.461,133.941z
		 M99.327,98.452c4.9,12.32-3.608,24.751-16.479,24.717c-0.63-1.773,0.395-4.438-0.316-6.655c-0.774-2.407-3.362-3.591-3.805-5.703
		C89.346,110.441,96.439,106.55,99.327,98.452z M102.495,66.763c-2.264,6.994-14.369,5.584-15.845,15.845
		c-1.054,7.335,0.656,14.022,0.951,22.496c-2.997,1.336-6.735,1.927-11.091,1.902c-2.985-6.627-5.399-13.825-8.557-20.28
		c0.738,8.713,3.707,16.095,6.021,24.4c-12.264-0.53-26.709-0.521-38.975,0c2.6-7.54,5.216-15.063,6.337-24.083
		c-3.487,6.021-5.555,13.46-8.556,19.963c-4.32-0.011-8.146-0.516-11.091-1.902c0.291-9.145,1.727-14.331,0.95-21.547
		c-1.165-10.81-12.117-9.824-15.528-16.161c-1.351-2.51-0.54-6.101,2.218-7.922c0.609,1.025,0.563,2.19,0,2.852
		c3.959-3.71,5.056-15.142,3.17-22.181c-0.715,0.235-0.124,1.777-0.316,2.534c-4.338-3.257-5.143-10.538,2.535-10.774
		c10.936-0.336,22.686,9.186,28.203,12.359c-2.596-4.368-8.423-10.73-14.894-13.309c10.468-11.744,42.309-11.332,53.236-0.316
		c-6.279,3.438-11.594,7.842-15.211,13.943c5.602-3.322,16.543-12.974,27.648-12.676C101.232,32.107,101,39.296,96,42.679
		c0-0.95,0-1.9,0-2.852c-1,7.246-0.344,17.885,3.09,22.815c0.09-0.595,0.332-1.781-0.039-2.852
		C101.986,59.714,103.249,64.432,102.495,66.763z"/>
</g>
</svg>
